<svg version="1.2" xmlns="http://www.w3.org/2000/svg" xmlns:xlink="http://www.w3.org/1999/xlink" overflow="visible" preserveAspectRatio="none" viewBox="0 0 3847.64990234375 483.19000244140625" width="116" height="14"><g transform="translate(1, 1)"><defs><style>.cls-1_1575395366103{fill:#fff;}</style></defs><g id="Layer_2_1575395366103"><g id="Camada_1_1575395366103"><path d="M464,195.82c0-33.57-.27-67.55-.83-103.88C462.53,64.46,449.39,43.28,423,27.2c-25-14.83-58.71-22.38-100-22.38H0v468.5H80.74V291.39h247.1c42.81,0,76.77-8.8,100.94-26.16,23.69-17,35.19-39.7,35.19-69.41M383.22,173c0,28.71-15.38,62.94-88.67,62.94H80.74V58.25H297.06c71.21,0,86.16,31.08,86.16,57.17Z" class="cls-1_1575395366103" vector-effect="non-scaling-stroke"/><path d="M911.92,353.23l58.37,120.09H1056L844.26,40C831,13.42,808.12.49,774.35.49S717.7,13.42,704.41,40L492.72,473.32h85.7l58.37-120.09ZM769.14,56.5l120,246.43h-229Z" class="cls-1_1575395366103" vector-effect="non-scaling-stroke"/><polygon points="1472.74 4.56 1059.62 4.56 1059.62 58.52 1225.25 58.52 1225.25 473.32 1306 473.32 1306 58.52 1472.74 58.52 1472.74 4.56" class="cls-1_1575395366103" vector-effect="non-scaling-stroke"/><path d="M1938.35,473.33h94.38L1778.8,274.44h136.56c40,0,72.71-8.87,97.16-26.37,23.62-17.18,35.13-39,35.13-66.77V96.49c0-64.6-46.17-96-141.16-96h-319V473.33h80.74v-418h210c73.29,0,88.66,32.58,88.66,59.91v56.21c0,26.18-13.78,57.4-79.47,57.4l-142.46,1c-46.67,0-52.06,18.69-52.06,32.76,0,11.56,3,19.72,9,24.25Z" class="cls-1_1575395366103" vector-effect="non-scaling-stroke"/><rect height="468.87" width="80.75" y="4.45" x="2212.09" class="cls-1_1575395366103" vector-effect="non-scaling-stroke"/><path d="M2841.18,353.23l58.37,120.09h85.69L2773.52,40C2760.26,13.42,2737.38.49,2703.61.49S2647,13.42,2633.66,40L2422,473.32h85.7L2566,353.23ZM2698.4,56.5l120,246.43h-229Z" class="cls-1_1575395366103" vector-effect="non-scaling-stroke"/><path d="M3552.57,4.5h-76.23V419.78L3236,51.05c-15.95-24.91-24.4-34.24-28.69-37.69C3196.32,4.49,3179.64,0,3157.66,0c-48.49,0-71.08,20.07-71.08,63.19V474.34H3163V60.57l242.4,369c18.06,28.5,25.29,35.89,27.57,37.76,11.07,9.19,27.45,13.82,48.73,13.82,22.76,0,40.26-6,53.48-18.32,11.75-10.58,17.41-23.63,17.41-40Z" class="cls-1_1575395366103" vector-effect="non-scaling-stroke"/><rect height="468.9" width="80.74" y="4.42" x="3764.91" class="cls-1_1575395366103" vector-effect="non-scaling-stroke"/></g></g></g></svg>